<?xml version="1.0" standalone="no"?>
<!DOCTYPE svg PUBLIC "-//W3C//DTD SVG 20010904//EN"
 "http://www.w3.org/TR/2001/REC-SVG-20010904/DTD/svg10.dtd">
<svg version="1.0" xmlns="http://www.w3.org/2000/svg"
 width="146.000000pt" height="146.000000pt" viewBox="0 0 146.000000 146.000000"
 preserveAspectRatio="xMidYMid meet">
<metadata>
Created by potrace 1.14, written by Peter Selinger 2001-2017
</metadata>
<g transform="translate(0.000000,146.000000) scale(0.100000,-0.100000)"
fill="#000000" stroke="none">
<path d="M1185 1193 c-8 -8 -15 -19 -15 -25 0 -7 -5 -6 -14 2 -23 19 -61 8
-64 -18 -2 -13 2 -30 8 -37 10 -12 9 -16 -4 -21 -23 -9 -20 -41 4 -49 24 -7
25 -18 6 -34 -12 -10 -23 -3 -58 35 -166 181 -387 195 -677 43 -52 -27 -97
-47 -100 -43 -3 3 -12 24 -21 46 -8 23 -20 43 -27 45 -14 5 -133 -166 -126
-182 2 -7 21 -20 42 -29 l38 -17 -12 -62 c-19 -104 -11 -250 19 -337 36 -102
99 -209 160 -271 153 -155 423 -170 650 -37 183 108 263 272 231 478 -10 65
-42 155 -83 233 l-36 67 22 22 22 22 0 -26 c0 -30 23 -43 51 -28 19 11 23 20
20 52 -2 13 4 16 22 12 47 -8 64 50 20 71 -17 9 -19 15 -11 29 23 41 -35 92
-67 59z"/>
</g>
</svg>
